<svg width="110" height="98" viewBox="0 0 110 98" fill="none" xmlns="http://www.w3.org/2000/svg">
<path opacity="0.77" d="M51.9017 81.5589C34.0057 81.5589 19.4988 67.0521 19.4988 49.156C19.4988 31.26 33.9974 16.7641 51.8853 16.7532V13.3338C32.0647 13.3338 15.9946 29.4011 15.9946 49.2245C15.9946 69.0478 32.0619 85.1151 51.8853 85.1151C60.0517 85.1151 67.5748 82.383 73.6058 77.7919L71.4403 75.0022C66.0088 79.1169 59.2414 81.5589 51.9017 81.5589Z" fill="#C32935"/>
<path opacity="0.37" d="M85.159 35.7744C83.3084 31.2053 80.5434 27.1043 77.0939 23.6959L74.6738 26.116C77.7729 29.1821 80.2559 32.8725 81.9231 36.979L85.159 35.7772V35.7744Z" fill="#C32935"/>
<path opacity="0.44" d="M72.8068 63.4794C69.4723 68.4319 64.4323 72.1386 58.5244 73.7539V76.3738C65.7628 74.6463 71.9061 70.0964 75.7278 63.9531L72.8068 63.4822V63.4794Z" fill="#C32935"/>
<path opacity="0.68" d="M30.7672 63.3891C22.9293 52.2961 25.7846 36.7983 37.1459 28.7687C48.5044 20.7447 61.6589 23.9915 69.2969 31.2846L71.4679 29.7516C65.4916 21.5304 48.1513 17.736 35.569 26.6279C22.984 35.5198 19.822 52.6876 28.5031 64.9742C32.0785 70.0361 37.1103 73.4746 42.665 75.1528L43.4863 72.5603C38.4956 71.0381 33.9812 67.9391 30.7644 63.3891H30.7672Z" fill="#C32935"/>
<path opacity="0.66" d="M79.1391 36.0153C79.1391 36.0153 70.7099 15.7868 45.8219 19.5538C45.8219 19.5538 22.8174 23.8711 21.6265 48.3375C21.6265 48.3375 19.6444 64.7224 36.7986 75.8783C36.7986 75.8783 59.4061 89.0163 77.2556 66.4088" stroke="#C32935" stroke-width="0.360218" stroke-miterlimit="10"/>
<path opacity="0.63" d="M41.3376 74.2768C41.3376 74.2768 61.5196 84.1734 75.7281 63.9503" stroke="#C32935" stroke-width="0.360218" stroke-miterlimit="10"/>
<path opacity="0.65" d="M76.7601 38.2958C76.7601 38.2958 68.8017 14.908 41.636 23.7123" stroke="#C32935" stroke-width="0.360218" stroke-miterlimit="10"/>
<path opacity="0.39" d="M52.0471 86.7084V92.411C68.6729 92.411 83.1085 83.0619 90.4017 69.3353L84.9455 67.0247C78.6489 78.7391 66.2802 86.7057 52.0471 86.7057V86.7084Z" fill="#C32935"/>
<path opacity="0.81" d="M8.63604 49C8.63604 52.6931 9.10144 56.2739 9.96654 59.696L15.7019 57.8837C15.0641 55.1515 14.7164 52.3043 14.7164 49.3778C14.7164 28.7715 31.4133 12.0663 52.0169 12.0499V5.58901C28.0542 5.60544 8.6333 25.0346 8.6333 49H8.63604Z" fill="#C32935"/>
<path d="M56.3616 67.3642C54.9681 67.7009 53.5145 67.8816 52.017 67.8816C41.7973 67.8816 33.5131 59.5975 33.5131 49.3778H30.5647C30.5647 61.24 40.1821 70.8574 52.0443 70.8574C53.7225 70.8574 55.3542 70.6576 56.9228 70.2935L56.3616 67.3614V67.3642Z" fill="#C32935"/>
<path opacity="0.66" d="M68.1226 40.2751L70.9725 39.2129C67.3479 32.4782 60.2327 27.8981 52.0471 27.8981C50.2266 27.8981 48.4608 28.1281 46.7744 28.5524L47.3685 31.4763C48.855 31.0903 50.41 30.8767 52.017 30.8767C58.9241 30.8767 64.9442 34.6656 68.1226 40.2751Z" fill="#C32935"/>
<path d="M34.4932 47.0426H36.4177C36.4177 47.0426 36.4533 37.3978 47.2725 34.6492V32.8533C47.2725 32.8533 36.029 33.6062 34.4932 47.0426Z" fill="#C32935"/>
<path opacity="0.36" d="M47.7434 63.0633V65.4561C47.7434 65.4561 55.6087 66.1897 58.5243 61.7903C58.5243 61.7903 53.9935 64.1447 47.7434 63.0633Z" fill="#C32935"/>
<path d="M89.2573 42.6693H101.632V45.9226H97.4804V55.8441H93.4093V45.9226H89.2573V42.6693Z" fill="#2C2E82"/>
<path d="M83.9463 42.6693H87.604V45.1587H83.9463V42.6693ZM83.9463 46.3H87.604V55.8441H83.9463V46.3Z" fill="#2C2E82"/>
<path d="M83.1028 44.2732L79.1601 54.7299H77.1245L72.9675 44.2732H75.346L78.2602 52.3943H77.9816L80.7672 44.2732H83.1028Z" fill="black"/>
<path d="M68.2166 44.2732L68.7309 47.1017V54.7299H66.5881V44.2732H68.2166ZM68.4095 47.9802L67.8952 47.7445V46.1803L68.0881 45.9446C68.2309 45.6875 68.4523 45.416 68.7523 45.1303C69.0666 44.8304 69.4309 44.5804 69.8451 44.3804C70.2594 44.1661 70.6808 44.059 71.1094 44.059C71.3236 44.059 71.5236 44.0732 71.7093 44.1018C71.9093 44.1304 72.0593 44.1804 72.1593 44.2518V46.1803H71.4951C70.5237 46.1803 69.8166 46.3303 69.3737 46.6303C68.9309 46.916 68.6095 47.366 68.4095 47.9802Z" fill="black"/>
<path d="M59.4317 54.9442C58.4175 54.9442 57.5247 54.7228 56.7533 54.2799C55.9819 53.8228 55.3819 53.1871 54.9534 52.3729C54.5248 51.5586 54.3105 50.6087 54.3105 49.523C54.3105 48.4231 54.5248 47.466 54.9534 46.6517C55.3819 45.8375 55.9819 45.2018 56.7533 44.7446C57.5247 44.2875 58.4175 44.059 59.4317 44.059C60.4603 44.059 61.3602 44.2875 62.1316 44.7446C62.903 45.2018 63.503 45.8375 63.9316 46.6517C64.3601 47.466 64.5744 48.4231 64.5744 49.523C64.5744 49.623 64.5672 49.7301 64.553 49.8444C64.553 49.9444 64.5458 50.0373 64.5315 50.123H56.3462V48.2802H62.9887L62.3888 49.523C62.3888 48.4373 62.1459 47.5445 61.6602 46.8446C61.1745 46.1446 60.4317 45.7946 59.4317 45.7946C58.5461 45.7946 57.839 46.0803 57.3104 46.6517C56.7819 47.2088 56.5176 47.9445 56.5176 48.8587V49.973C56.5176 50.9301 56.7747 51.6943 57.289 52.2657C57.8033 52.8229 58.5175 53.1014 59.4317 53.1014C60.2746 53.1014 60.9245 52.9229 61.3817 52.5657C61.8388 52.2086 62.2388 51.7658 62.5816 51.2372L64.1887 52.2443C63.703 53.1443 63.0744 53.8228 62.3031 54.2799C61.5459 54.7228 60.5888 54.9442 59.4317 54.9442Z" fill="black"/>
<path d="M48.4361 55.0513C47.6789 55.0513 46.9433 54.937 46.229 54.7085C45.529 54.4799 44.8862 54.1085 44.3005 53.5943C43.7148 53.0657 43.222 52.3514 42.822 51.4515L44.6005 50.4444C45.1005 51.3444 45.6505 51.9943 46.2504 52.3943C46.8504 52.7943 47.6004 52.9943 48.5003 52.9943C49.3717 52.9943 50.0288 52.8014 50.4717 52.4157C50.9288 52.03 51.1574 51.5015 51.1574 50.8301C51.1574 50.4301 51.0574 50.0801 50.8574 49.7801C50.6717 49.4801 50.336 49.2016 49.8503 48.9445C49.3646 48.6873 48.6789 48.4516 47.7932 48.2373C46.679 47.9516 45.8076 47.6017 45.1791 47.1874C44.5648 46.7588 44.1362 46.2731 43.8934 45.7303C43.6506 45.1732 43.5291 44.5732 43.5291 43.9304C43.5291 43.1304 43.7148 42.4376 44.0863 41.8519C44.4577 41.2519 44.9934 40.7877 45.6933 40.4591C46.3933 40.1163 47.2218 39.9449 48.1789 39.9449C49.3217 39.9449 50.2645 40.1663 51.0074 40.6091C51.7502 41.0377 52.3787 41.6305 52.893 42.3876L51.0931 43.5447C50.6502 43.0019 50.186 42.6162 49.7003 42.3876C49.2289 42.1448 48.7218 42.0233 48.1789 42.0233C47.3504 42.0233 46.7147 42.1876 46.2719 42.5162C45.8433 42.8447 45.629 43.3161 45.629 43.9304C45.629 44.4589 45.829 44.9161 46.229 45.3018C46.6433 45.6875 47.4432 46.0232 48.6289 46.3089C49.8289 46.6088 50.7645 46.966 51.4359 47.3802C52.1216 47.7802 52.6002 48.2659 52.8716 48.8373C53.1573 49.3944 53.3001 50.0658 53.3001 50.8515C53.3001 51.6372 53.1001 52.3443 52.7002 52.9729C52.3002 53.6014 51.7359 54.1085 51.0074 54.4942C50.2788 54.8656 49.4217 55.0513 48.4361 55.0513Z" fill="black"/>
</svg>
