<svg xmlns="http://www.w3.org/2000/svg" width="49" height="40" fill="none"><path fill="#FF6333" d="M14.555 37.859a6.878 6.878 0 0 0-.978-.602c.075-.602 0-1.28-.15-1.957-.302-1.13-.904-2.183-1.732-3.161-.752.602-1.129 1.655-.978 2.784-.527-.526-1.054-1.053-1.506-1.58.302-.527.452-1.204.452-1.882.075-1.129-.15-2.258-.677-3.387-.979.377-1.581 1.355-1.732 2.484-.376-.602-.677-1.28-.978-1.882a4.467 4.467 0 0 0 1.054-1.73c.376-1.055.451-2.184.226-3.388-1.054.15-1.957.903-2.409 2.032a11.262 11.262 0 0 1-.452-2.182c.603-.302 1.13-.828 1.506-1.43.602-.904 1.053-2.033 1.129-3.237-1.13-.15-2.258.452-2.936 1.505 0-.752.076-1.58.15-2.333.678-.15 1.356-.527 1.958-.978.828-.678 1.505-1.656 1.957-2.785-1.054-.452-2.334-.15-3.312.752.226-.752.452-1.58.753-2.333.752.075 1.505-.15 2.182-.452.979-.451 1.882-1.204 2.635-2.258-.903-.752-2.258-.752-3.463-.075.452-.752.904-1.43 1.43-2.107.678.3 1.506.3 2.334.15a7.713 7.713 0 0 0 3.312-1.505c-.678-.979-2.033-1.355-3.463-.979 1.054-.978 2.183-1.881 3.538-2.634.376-.226.527-.677.3-1.054-.225-.376-.752-.527-1.128-.3a21.226 21.226 0 0 0-3.839 2.86c.603-1.506.678-2.86 0-3.914-1.354.903-2.333 2.408-2.559 3.688-.226.978-.075 1.806.377 2.483-.603.753-1.13 1.581-1.581 2.334.15-1.58-.226-2.936-1.13-3.688-1.053 1.43-1.504 3.086-1.354 4.365.075.979.452 1.731 1.054 2.258-.376.903-.678 1.731-.903 2.635-.301-1.506-.979-2.71-2.108-3.237-.602 1.656-.602 3.312-.15 4.516.376.903.903 1.505 1.656 1.882-.151.903-.151 1.806-.151 2.71-.677-1.355-1.656-2.259-2.86-2.41-.15 1.732.3 3.313 1.054 4.366a3.286 3.286 0 0 0 2.032 1.355c.075.903.3 1.731.451 2.56-.978-1.055-2.107-1.657-3.311-1.506.3 1.731 1.129 3.161 2.182 3.914.678.602 1.506.828 2.183.752.301.753.678 1.581 1.054 2.258-1.28-.526-2.484-.828-3.538-.376.753 1.58 1.957 2.785 3.162 3.312.827.376 1.58.376 2.258.226.526.677 1.053 1.28 1.655 1.881-1.28-.3-2.408-.226-3.236.452 1.204 1.355 2.785 2.183 4.14 2.409.828.15 1.58 0 2.182-.302.301.226.678.452.979.678.602.376 1.355.15 1.656-.452.3-.527.15-1.204-.377-1.505Zm29.956-11.741c.226-.828.377-1.731.452-2.56.752-.15 1.43-.602 2.032-1.354.753-1.054 1.204-2.634 1.054-4.366-1.205.15-2.183 1.13-2.86 2.409 0-.903-.076-1.806-.15-2.71.676-.3 1.279-.978 1.655-1.881.452-1.205.527-2.86-.15-4.517-1.13.527-1.807 1.732-2.108 3.237a15.53 15.53 0 0 0-.903-2.634c.602-.527.978-1.28 1.053-2.258.151-1.28-.3-2.936-1.354-4.366-.979.753-1.28 2.183-1.13 3.688-.601-.828-1.128-1.58-1.73-2.333.451-.602.602-1.505.376-2.484-.226-1.28-1.204-2.785-2.71-3.989-.677.978-.602 2.409 0 3.914a21.226 21.226 0 0 0-3.838-2.86c-.377-.226-.904-.076-1.13.3-.225.377-.075.829.302 1.055a20.582 20.582 0 0 1 3.537 2.634c-1.43-.376-2.785 0-3.462.978a7.713 7.713 0 0 0 3.312 1.506c.828.15 1.656.15 2.333-.15.527.677 1.054 1.43 1.43 2.107-1.204-.678-2.559-.678-3.462.075.752.978 1.656 1.806 2.634 2.258.753.376 1.505.527 2.183.452.301.752.527 1.505.753 2.333-.979-.903-2.258-1.204-3.312-.753.451 1.13 1.129 2.108 1.957 2.785a4.38 4.38 0 0 0 1.957.979c.075.752.15 1.58.15 2.333-.677-1.054-1.806-1.656-2.935-1.506.15 1.205.527 2.334 1.129 3.237.376.602.903 1.129 1.505 1.43-.15.753-.3 1.43-.451 2.183-.452-1.13-1.28-1.957-2.409-2.032-.226 1.204-.075 2.408.226 3.387.226.677.527 1.28 1.054 1.73a14.78 14.78 0 0 1-.979 1.882c-.15-1.129-.753-2.107-1.731-2.483-.527 1.129-.753 2.258-.677 3.387 0 .677.15 1.354.451 1.881-.451.527-.978 1.054-1.505 1.58.15-1.128-.15-2.182-.979-2.784-.828.978-1.43 2.032-1.73 3.161-.151.678-.227 1.355-.151 1.957-.301.226-.603.452-.979.602-.527.301-.677.979-.451 1.506a1.151 1.151 0 0 0 1.655.451c.377-.226.678-.451.979-.677.602.3 1.355.451 2.183.3 1.354-.225 2.935-1.053 4.14-2.408-.829-.677-1.958-.752-3.237-.451a19.74 19.74 0 0 0 1.656-1.882c.677.15 1.43.075 2.258-.226 1.204-.527 2.408-1.656 3.161-3.311-1.054-.452-2.258-.151-3.387.526.376-.752.753-1.505 1.054-2.258.752 0 1.505-.225 2.182-.752.979-.828 1.882-2.183 2.183-3.914-.978 0-2.107.677-3.086 1.656Z"/><path fill="#FF6333" d="m33.223 33.043-1.58-9.108 6.623-6.473c.226-.226.3-.527.226-.752-.076-.302-.301-.452-.603-.527l-9.182-1.355-4.065-8.28c-.15-.225-.376-.451-.677-.451-.301 0-.527.15-.677.452l-4.065 8.279-9.182 1.355c-.302.075-.527.226-.603.527-.075.3 0 .602.226.752l6.624 6.473-1.58 9.108a.716.716 0 0 0 .3.752c.226.15.527.226.828.075l8.129-4.365 8.204 4.29c.075.075.226.075.376.075s.301-.075.452-.15c.15-.15.301-.376.226-.677Z"/></svg>