<svg xmlns="http://www.w3.org/2000/svg" width="48" height="49" fill="none"><path fill="#FAB400" d="M41.25 31.25a2.242 2.242 0 0 0-1.59.66L33.567 38H30.75a2.249 2.249 0 1 0 0-4.5H27l-1.243-1.243a6 6 0 0 0-4.242-1.757h-1.03a5.999 5.999 0 0 0-4.243 1.757L15 33.5h-3v9h22.5c.622 0 1.184-.252 1.592-.66l6.749-6.748a2.25 2.25 0 0 0-1.591-3.842Z"/><path fill="#DC9600" d="M24.375 38a.375.375 0 0 0 0 .75h6.375a2.974 2.974 0 0 0 1.964-.75h-8.339Z"/><path fill="#F0C8A0" d="M6 33.5h4.5v9H6v-9Z"/><path fill="#C80A50" d="M11.25 43.25a.75.75 0 0 0 .75-.75v-9a.75.75 0 1 0-1.5 0v9a.75.75 0 0 0 .75.75Z"/><path fill="#D2AA82" d="M9.75 33.5h.75v9h-.75v-9Z"/><path fill="#0082AA" d="M24 27.5c5.799 0 10.5-4.701 10.5-10.5S29.799 6.5 24 6.5 13.5 11.201 13.5 17 18.201 27.5 24 27.5Z"/><path fill="#00A0C8" d="M24 26a9 9 0 1 0 0-18 9 9 0 0 0 0 18Z"/><path fill="#0082AA" d="M29.25 17a7.49 7.49 0 0 0 3.243 6.175A10.45 10.45 0 0 0 34.5 17a10.45 10.45 0 0 0-2.007-6.175A7.489 7.489 0 0 0 29.25 17Z"/><path fill="#00648C" d="m26.506 17.415-4.341-2.171a.746.746 0 0 1-.415-.671V14a.75.75 0 0 1 .75-.75h3a.75.75 0 0 1 .75.75.75.75 0 1 0 1.5 0c0-1.24-1.01-2.25-2.25-2.25h-.75V11a.75.75 0 1 0-1.5 0v.75h-.75c-1.24 0-2.25 1.01-2.25 2.25v.573c0 .858.477 1.628 1.244 2.012l4.341 2.171a.745.745 0 0 1 .415.671V20a.75.75 0 0 1-.75.75h-3a.75.75 0 0 1-.75-.75.75.75 0 1 0-1.5 0c0 1.24 1.01 2.25 2.25 2.25h.75V23a.75.75 0 1 0 1.5 0v-.75h.75c1.24 0 2.25-1.01 2.25-2.25v-.573a2.237 2.237 0 0 0-1.244-2.012Z"/><path fill="#0A5078" d="M37.5 24.5a7.5 7.5 0 1 0 0-15 7.5 7.5 0 0 0 0 15Z"/><path fill="#00325A" d="m40.72 19.03-2.69 2.69a.747.747 0 0 1-1.06 0l-2.69-2.69a.75.75 0 0 1 .53-1.28H36V14a.75.75 0 0 1 .75-.75h1.5A.75.75 0 0 1 39 14v3.75h1.19a.75.75 0 0 1 .53 1.28Z"/><path fill="#FAB400" d="m40.72 18.28-2.69 2.69a.747.747 0 0 1-1.06 0l-2.69-2.69a.75.75 0 0 1 .53-1.28H36v-3.75a.75.75 0 0 1 .75-.75h1.5a.75.75 0 0 1 .75.75V17h1.19a.75.75 0 0 1 .53 1.28Z"/></svg>