<svg xmlns="http://www.w3.org/2000/svg" width="48" height="48" fill="none"><g clip-path="url(#a)"><path fill="#F0F0F0" d="M33.014 13.5H3V36a3 3 0 0 0 3 3h22.5v-4.42c0-1.5 1.078-2.807 2.507-3.04.167-.027.331-.04.493-.04v-5.92c0-1.5 1.078-2.807 2.507-3.04A3.004 3.004 0 0 1 37.5 25.5v3c.527 0 1.044.138 1.5.403V16.5c-2.447 0-4.615-1.183-5.986-3Z"/><path fill="#64C8F0" d="M31.5 9c0-1.033.215-2.055.63-3H6a3 3 0 0 0-3 3v4.5h30.014A7.453 7.453 0 0 1 31.5 9Z"/><path fill="#46AAD2" d="M9 6H6a3 3 0 0 0-3 3v4.5h3V9a3 3 0 0 1 3-3Z"/><path fill="#D2D2D2" d="M6 36V13.5H3V36a3 3 0 0 0 3 3h3a3 3 0 0 1-3-3Z"/><path fill="#FA6450" d="M13.5 9A1.5 1.5 0 0 1 12 7.5v-3a1.5 1.5 0 1 1 3 0v3A1.5 1.5 0 0 1 13.5 9ZM21 9a1.5 1.5 0 0 1-1.5-1.5v-3a1.5 1.5 0 1 1 3 0v3A1.5 1.5 0 0 1 21 9Zm7.5 0A1.5 1.5 0 0 1 27 7.5v-3a1.5 1.5 0 1 1 3 0v3A1.5 1.5 0 0 1 28.5 9Z"/><path fill="#505050" d="M13.5 18h3v3h-3v-3Zm6 0h3v3h-3v-3Zm6 0h3v3h-3v-3Z"/><path fill="#FA6450" d="M31.5 18h3v3h-3v-3Z"/><path fill="#505050" d="M7.5 24h3v3h-3v-3Zm6 0h3v3h-3v-3Zm6 0h3v3h-3v-3Zm6 0h3v3h-3v-3Zm-18 6h3v3h-3v-3Zm6 0h3v3h-3v-3Zm6 0h3v3h-3v-3Zm6 0h3v3h-3v-3Z"/><path fill="#C80A50" d="M44 28.5H20a1.5 1.5 0 0 1-1.5-1.5v-9a1.5 1.5 0 0 1 1.5-1.5h24a1.5 1.5 0 0 1 1.5 1.5v9a1.5 1.5 0 0 1-1.5 1.5Z"/><path fill="#A00028" d="M32.25 21a1.5 1.5 0 0 0-1.5 1.5v6h3v-6a1.5 1.5 0 0 0-1.5-1.5Z"/><path fill="#FAB400" d="M24 18.692h-1.5a.75.75 0 0 0-.75.75v6a.75.75 0 0 0 .75.75H24c1.24 0 2.25-1.01 2.25-2.25a2.24 2.24 0 0 0-.575-1.5 2.24 2.24 0 0 0 .575-1.5c0-1.24-1.01-2.25-2.25-2.25Zm0 6h-.75v-1.5H24a.75.75 0 0 1 0 1.5Zm0-3h-.75v-1.5H24a.75.75 0 0 1 0 1.5Zm6-3c-1.24 0-2.25 1.01-2.25 2.25v3c0 1.24 1.01 2.25 2.25 2.25s2.25-1.01 2.25-2.25v-3c0-1.24-1.01-2.25-2.25-2.25Zm.75 5.25a.75.75 0 0 1-1.5 0v-3a.75.75 0 0 1 1.5 0v3Zm5.25-5.25c-1.24 0-2.25 1.01-2.25 2.25v3c0 1.24 1.01 2.25 2.25 2.25s2.25-1.01 2.25-2.25v-3c0-1.24-1.01-2.25-2.25-2.25Zm.75 5.25a.75.75 0 0 1-1.5 0v-3a.75.75 0 0 1 1.5 0v3Zm6.006-1.5a3.766 3.766 0 0 0 1.494-3 .75.75 0 1 0-1.5 0 2.273 2.273 0 0 1-1.5 2.133v-2.133a.75.75 0 1 0-1.5 0V25.5a.75.75 0 1 0 1.5 0v-2.19a2.273 2.273 0 0 1 1.5 2.132.75.75 0 0 0 1.5 0 3.766 3.766 0 0 0-1.494-3Z"/><path fill="#DC9600" d="M31.25 23.942V21a1.5 1.5 0 0 0-1.5 1.5v3.563a2.252 2.252 0 0 0 1.5-2.12Z"/><path fill="#A00028" d="M44 27.75H20a1.5 1.5 0 0 1-1.5-1.5V27a1.5 1.5 0 0 0 1.5 1.5h24a1.5 1.5 0 0 0 1.5-1.5v-.75a1.5 1.5 0 0 1-1.5 1.5Z"/><path fill="#F0C8A0" d="M41 30a1.5 1.5 0 0 0-1.5 1.5 1.5 1.5 0 1 0-3 0 1.5 1.5 0 1 0-3 0v-9a1.5 1.5 0 1 0-3 0V33a1.5 1.5 0 0 0-1.5 1.5V39a3 3 0 0 0 3 3v6h9v-6.401A2.999 2.999 0 0 0 42.5 39v-7.5A1.5 1.5 0 0 0 41 30Z"/><path fill="#D2AA82" d="M29.75 39.094V34.5a1.5 1.5 0 0 1 1.5-1.5h-.75a1.5 1.5 0 0 0-1.5 1.5V39a3 3 0 0 0 3 3 3 3 0 0 1-2.25-2.906ZM37.25 33v-1.5a1.5 1.5 0 0 1 1.125-1.453A1.5 1.5 0 0 0 36.5 31.5V33h.75Zm3 0v-1.5a1.5 1.5 0 0 1 1.125-1.453A1.5 1.5 0 0 0 39.5 31.5V33h.75Z"/><path fill="#D2AA82" d="M32.375 21.053A1.48 1.48 0 0 0 32 21a1.5 1.5 0 0 0-1.5 1.5V39h.75V22.5c0-.698.48-1.28 1.125-1.447ZM34.25 33v-1.5a1.5 1.5 0 0 1 1.125-1.453A1.5 1.5 0 0 0 33.5 31.5V33h.75Z"/><path fill="#00A0C8" d="M38 15a6 6 0 1 0 0-12 6 6 0 0 0 0 12Z"/><path fill="#0082AA" d="M37.25 12a.748.748 0 0 1-.53-.22l-1.5-1.5a.751.751 0 0 1 1.06-1.06l.97.97 3.22-3.22a.75.75 0 0 1 1.06 1.06l-3.75 3.75a.748.748 0 0 1-.53.22Z"/><path fill="#FAB400" d="M37.25 11.25a.748.748 0 0 1-.53-.22l-1.5-1.5a.75.75 0 0 1 1.06-1.06l.97.97 3.22-3.22a.75.75 0 0 1 1.06 1.06l-3.75 3.75a.748.748 0 0 1-.53.22Z"/><path fill="#0A5078" d="M41 43.5h-9a1.5 1.5 0 0 0-1.5 1.5v3h12v-3a1.5 1.5 0 0 0-1.5-1.5Z"/><path fill="#D2AA82" d="M32 42.75h9v.75h-9v-.75Z"/></g><defs><clipPath id="a"><path fill="#fff" d="M0 0h48v48H0z"/></clipPath></defs></svg>