<svg xmlns="http://www.w3.org/2000/svg" width="40" height="40" fill="none"><g clip-path="url(#a)"><path fill="#FF6333" d="M35 30v-8.333c0-8.272-6.728-15-15-15s-15 6.728-15 15V30c-2.757 0-5 2.244-5 5v5h40v-5c0-2.756-2.243-5-5-5ZM8.333 21.667C8.333 15.235 13.568 10 20 10c6.432 0 11.667 5.235 11.667 11.667V30H8.333v-8.333Zm28.334 15H3.333V35c0-.92.747-1.666 1.667-1.666h30c.92 0 1.667.746 1.667 1.666v1.667ZM3.892 11.077.03 7.377l2.305-2.405 3.862 3.7-2.305 2.405ZM9.59 5.874 7.57 1.345l3.043-1.358 2.02 4.528L9.59 5.874Zm26.52 5.203-2.305-2.405 3.862-3.7 2.305 2.405-3.862 3.7Zm-5.7-5.203-3.043-1.357 2.021-4.53 3.044 1.357-2.022 4.53ZM20 15.002v3.333a3.337 3.337 0 0 0-3.333 3.334h-3.334A6.673 6.673 0 0 1 20 15.002Z"/></g><defs><clipPath id="a"><path fill="#fff" d="M0 0h40v40H0z"/></clipPath></defs></svg>