<svg xmlns="http://www.w3.org/2000/svg" width="48" height="49" fill="none"><path fill="#BE2814" d="m43.671 19.372.557.556a.95.95 0 0 1 0 1.344L41.099 24.4l-1.9-1.9 3.129-3.128a.95.95 0 0 1 1.343 0Zm-16.543 0-.557.556a.95.95 0 0 0 0 1.344L29.7 24.4l1.9-1.9-3.128-3.128a.95.95 0 0 0-1.343 0Z"/><path fill="#FAB400" d="M33.5 16.8h3.8v3.8h-3.8v-3.8Z"/><path fill="#FA6450" d="M46.8 30.1c0-6.296-5.104-11.4-11.4-11.4S24 23.804 24 30.1s5.104 11.4 11.4 11.4 11.4-5.104 11.4-11.4Z"/><path fill="#DC4632" d="M25.9 30.1a11.4 11.4 0 0 1 10.45-11.353 11.603 11.603 0 0 0-.95-.047 11.4 11.4 0 1 0 0 22.8c.321 0 .636-.022.95-.047A11.4 11.4 0 0 1 25.9 30.1Z"/><path fill="#F0F0F0" d="M43 30.1a7.6 7.6 0 1 0-15.2 0 7.6 7.6 0 0 0 15.2 0Z"/><path fill="#FA6450" d="M38.25 14.9h-5.7a.95.95 0 0 0 0 1.9h5.7a.95.95 0 1 0 0-1.9Z"/><path fill="#DC4632" d="M33.5 15.85a.95.95 0 0 1 .95-.95h-1.9a.95.95 0 0 0 0 1.9h1.9a.95.95 0 0 1-.95-.95Z"/><path fill="#505050" d="M34.925 22.5h.95v1.9h-.95v-1.9Zm0 13.3h.95v1.9h-.95v-1.9Zm6.175-6.175H43v.95h-1.9v-.95Zm-13.3 0h1.9v.95h-1.9v-.95Zm8.075.95H33.5v-.95h1.425V26.3h.95v4.275Z"/><path fill="#D2D2D2" d="M6.9 37.7H24v1.9H6.9v-1.9Zm-5.7-7.6h20.9V32H1.2v-1.9Zm5.7-7.6H24v1.9H6.9v-1.9Z"/><path fill="#3CC8B4" d="M12.6 18.7a7.6 7.6 0 1 0 0-15.2 7.6 7.6 0 0 0 0 15.2Z"/><path fill="#1EAA96" d="M6.9 11.1a7.6 7.6 0 0 1 6.65-7.534 7.6 7.6 0 1 0 0 15.069A7.6 7.6 0 0 1 6.9 11.1Z"/><path fill="#F0F0F0" d="m17.35 9.2-5.7 5.7-3.8-3.8 1.9-1.9 1.9 1.9 3.8-3.8 1.9 1.9Z"/></svg>